<?xml version="1.0" encoding="UTF-8"?>
<svg xmlns="http://www.w3.org/2000/svg" xmlns:xlink="http://www.w3.org/1999/xlink" width="24px" height="24px" viewBox="0 0 24 24" version="1.1">
<g id="surface1">
<path style=" stroke:none;fill-rule:nonzero;fill:rgb(100%,100%,100%);fill-opacity:1;" d="M 23.625 0.148438 C 23.917969 0.363281 24.039062 0.648438 23.988281 1.003906 L 20.558594 21.574219 C 20.511719 21.835938 20.371094 22.035156 20.128906 22.179688 C 20.003906 22.25 19.867188 22.285156 19.714844 22.285156 C 19.617188 22.285156 19.507812 22.261719 19.394531 22.21875 L 12.335938 19.339844 L 8.34375 23.71875 C 8.183594 23.90625 7.972656 24 7.714844 24 C 7.589844 24 7.488281 23.980469 7.40625 23.945312 C 7.238281 23.882812 7.101562 23.777344 7.003906 23.632812 C 6.90625 23.484375 6.855469 23.320312 6.855469 23.144531 L 6.855469 17.089844 L 0.535156 14.503906 C 0.207031 14.378906 0.0273438 14.132812 0 13.769531 C -0.0273438 13.417969 0.117188 13.15625 0.429688 12.976562 L 22.714844 0.121094 C 23.027344 -0.0664062 23.332031 -0.0585938 23.625 0.148438 Z M 19.042969 20.222656 L 22.003906 2.503906 L 2.800781 13.582031 L 7.300781 15.414062 L 18.855469 6.855469 L 12.457031 17.53125 Z M 19.042969 20.222656 "/>
</g>
</svg>
